inDegrees=yes
name=ik_S55_A02_T01
DataType=double
version=3
OpenSimVersion=4.3-2021-08-27-4bc7ad9
endheader
time	pelvis_tilt	pelvis_list	pelvis_rotation	pelvis_tx	pelvis_ty	pelvis_tz	hip_flexion_r	hip_adduction_r	hip_rotation_r	knee_angle_r	knee_angle_r_beta	ankle_angle_r	subtalar_angle_r	mtp_angle_r	hip_flexion_l	hip_adduction_l	hip_rotation_l	knee_angle_l	knee_angle_l_beta	ankle_angle_l	subtalar_angle_l	mtp_angle_l	lumbar_extension	lumbar_bending	lumbar_rotation	arm_flex_r	arm_add_r	arm_rot_r	elbow_flex_r	pro_sup_r	wrist_flex_r	wrist_dev_r	arm_flex_l	arm_add_l	arm_rot_l	elbow_flex_l	pro_sup_l	wrist_flex_l	wrist_dev_l
14.45999999999978	0.4676895558032753	-7.177185395940551	-82.37012934362794	0	0.9399999999999999	0	-6.313986745545435	3.113256278734613	-5.650123039196883	5.199831710285276	0.09075418389408597	0	0	0	16.54636197950141	-1.974618757202693	0.8669712479149084	12.19703033347206	0.2128783382847094	0	0	0	0	0	0	18.17754956144929	-18.1775495614493	2.961910861687264	58.42054626968356	87.03808930851332	0	0	18.17754956144929	-18.1775495614493	2.961910861687264	58.42054626968356	87.03808930813345	0	0
14.47999999999978	0.8952336824524552	-7.32367976693217	-82.34278221230716	0	0.9399999999999999	0	-6.032686586556926	2.762642930813947	-5.527168853602914	5.284637048390792	0.09223431626729423	0	0	0	16.59452003270709	-2.033801846733883	0.960217899963459	15.22485638428297	0.2657238720490169	0	0	0	0	0	0	18.19011334247497	-18.19011334247497	2.963748784409662	58.44648147747247	87.03625138589386	0	0	18.19011334247497	-18.19011334247497	2.963748784409662	58.44648147747247	87.03625138551425	0	0
14.49999999999978	1.229698971823641	-7.544035966360725	-82.39778469692052	0	0.9399999999999999	0	-5.762822086327552	2.514415247499544	-5.381910731290542	5.191565056947007	0.09060990357521219	0	0	0	16.67934882175062	-2.805631420311767	1.304743860364496	22.41594070916272	0.3912319703067221	0	0	0	0	0	0	18.77433299718928	-18.77433299718929	3.037885945225749	59.44983619971991	86.96211422913335	0	0	18.77433299718928	-18.77433299718929	3.037885945225749	59.44983619971991	86.96211422876759	0	0
14.51999999999978	1.461401910652899	-7.813770453482808	-82.53436156683983	0	0.9399999999999999	0	-5.54479818711128	2.330551595430268	-5.251738260965255	5.154210580685652	0.08995794497409348	0	0	0	16.2065944284288	-3.122612641412129	1.646081061177184	22.25067949125162	0.3883476179283175	0	0	0	0	0	0	18.78021568294432	-18.78021568294433	3.038739542402114	59.46180606168041	86.96126063200468	0	0	18.78021568294432	-18.78021568294433	3.038739542402114	59.46180606168041	86.96126063163905	0	0
14.53999999999978	1.544332326211732	-7.961997801524243	-82.6136690819302	0	0.9399999999999999	0	-5.199335884118272	2.265607768861073	-5.227786297796333	5.190756381780725	0.09059578953098145	0	0	0	15.62551604338962	-3.627338044444296	1.636599191595779	25.71275393236333	0.4487722158748595	0	0	0	0	0	0	18.79128304725128	-18.79128304725129	3.040334124030625	59.48412522662132	86.95966605046524	0	0	18.79128304725128	-18.79128304725129	3.040334124030625	59.48412522662132	86.95966605009988	0	0
14.55999999999978	1.679837260683573	-8.258810927503534	-82.7717817163493	0	0.9399999999999999	0	-5.006361372274232	2.147103427385959	-5.104062071247757	5.261707890922167	0.09183412697475846	0	0	0	14.66022085565565	-3.915092755848414	1.380407740101589	28.92477084874362	0.5048324866954509	0	0	0	0	0	0	18.80209834570972	-18.80209834570973	3.041889593844884	59.50588398448007	86.95811058073788	0	0	18.80209834570972	-18.80209834570973	3.041889593844884	59.50588398448007	86.9581105803728	0	0
14.57999999999978	1.791820523257421	-8.519855685845723	-82.83764979611723	0	0.9399999999999999	0	-5.275536173438518	2.06115474467324	-5.031573550417685	5.261930874158053	0.09183801876640144	0	0	0	13.56276263121483	-3.982356154998873	1.041686678145477	28.13476161580196	0.491044224459464	0	0	0	0	0	0	18.809880957827	-18.80988095782701	3.043015817084372	59.52166217415722	86.95698435756128	0	0	18.809880957827	-18.80988095782701	3.043015817084372	59.52166217415722	86.95698435719649	0	0
14.59999999999978	1.836469769413963	-8.676124687085384	-82.87907357802344	0	0.9399999999999999	0	-4.940236086787166	2.022394788740525	-4.959451456055096	5.328305112144202	0.09299646775776202	0	0	0	13.48522971257749	-4.107877325862487	1.337343102566145	35.56327565767232	0.6206962530207338	0	0	0	0	0	0	18.82741206530687	-18.82741206530688	3.04553299119457	59.55685066373904	86.95446718359145	0	0	18.82741206530687	-18.82741206530688	3.04553299119457	59.55685066373904	86.95446718322714	0	0
14.61999999999978	1.819098677906773	-8.74566419521611	-82.89680518587011	0	0.9399999999999999	0	-4.9511193667494	2.101369069580621	-4.760146254882076	4.652676951262083	0.08120453183117508	0	0	0	12.3708698001773	-4.212866779461479	1.186419143619083	34.53993443291399	0.6028355792773096	0	0	0	0	0	0	18.83673351089826	-18.83673351089827	3.046880639113293	59.57572105393739	86.95311953574802	0	0	18.83673351089826	-18.83673351089827	3.046880639113293	59.57572105393739	86.95311953538395	0	0
14.63999999999978	1.763174356825107	-8.716487262147179	-82.87476078669118	0	0.9399999999999999	0	-3.850602158781839	2.103342563200757	-4.434918160638757	5.278423384765004	0.09212586737841282	0	0	0	12.46505886749379	-4.367085186879442	1.513523839378576	40.92421285659078	0.7142622581345032	0	0	0	0	0	0	18.8654407329569	-18.86544073295691	3.050986715571981	59.63304365035884	86.94901345951845	0	0	18.8654407329569	-18.86544073295691	3.050986715571981	59.63304365035884	86.94901345915486	0	0
